<?xml version="1.0" encoding="UTF-8" standalone="no"?>
<svg
   width="427.24673"
   height="615.44873"
   viewBox="0 0 427.24673 615.44873"
   fill="none"
   version="1.1"
   id="svg16"
   sodipodi:docname="428b9bb12b25a092e06b4ab02939e31b.svg"
   xmlns:inkscape="http://www.inkscape.org/namespaces/inkscape"
   xmlns:sodipodi="http://sodipodi.sourceforge.net/DTD/sodipodi-0.dtd"
   xmlns="http://www.w3.org/2000/svg"
   xmlns:svg="http://www.w3.org/2000/svg">
  <defs
     id="defs20" />
  <sodipodi:namedview
     id="namedview18"
     pagecolor="#ffffff"
     bordercolor="#666666"
     borderopacity="1.0"
     inkscape:pageshadow="2"
     inkscape:pageopacity="0.0"
     inkscape:pagecheckerboard="0" />
  <path
     fill-rule="evenodd"
     clip-rule="evenodd"
     d="m 28.950522,605.838 c 70.4786,10.711 142.235498,11.249 213.299498,7.36 28.125,-2.107 56.336,-2.486 84.437,0.207 16.606,1.236 89.413,6.804 95.361,-8.076 -3.744,-79.238 -11.326,-159.15 -34.588,-235.357 -9.566,-27.06 -17.783,-49.518 -36.454,-71.91 -5.884,-6.114 -18.575,-18.936 -25.846,-23.118 -6.3,-3.623 -8.933,-2.33 -12.55,-8.449 -3.595,-6.759 -6.246,-18.047 -11.35,-22.817 -5.197,-4.856 -12.899,-3.118 -22.445,-1.554 1.754,-23.712 -9.185,-29.751 -24.256,-34.26 -26.49,-10.115 -52.652,-5.033 -59.32,27.231 -12.362,0 -19.306,5.323 -26.813,10.437 -3.069,2.091 -0.935,7.418 -4.6,9.061 -6.782,2.416 -18.767,1.824 -25.297,4.797 -29.6939,13.521 -56.141498,33.127 -73.510298,61.762 -38.93878,61.135 -65.68669986,189.917 -61.0580999,262.376 -2.028,3.181 0.7763,7.744 1.4891,11.165 0.8998,2.977 3.8135,4.956 6.8542999,4.618 4.2434,4.566 10.806738,5.582 16.6465,6.527 z"
     fill="#ffffff"
     id="path2" />
  <path
     fill-rule="evenodd"
     clip-rule="evenodd"
     d="m 320.67202,273.151 c -0.433,-0.241 -0.052,-0.86 0.383,-0.655 20.902,9.81 36.936,27.023 48.219,46.91 11.682,20.592 18.341,43.971 24.082,66.823 l 0.207,0.825 c 6.121,24.445 11.326,49.143 16.012,73.901 4.745,25.072 8.554,50.3 11.619,75.631 1.516,12.525 2.867,25.072 3.921,37.644 0.527,6.283 1.005,12.57 1.435,18.86 0.172,2.516 0.334,5.032 0.472,7.55 l 0.1,1.889 c 0.086,1.713 0.289,3.43 -0.134,5.12 -0.365,1.457 -1.136,2.776 -1.814,4.114 -1.341,2.643 -5.018,2.208 -6.463,0 l -0.42,-0.644 c -0.958,-1.482 -1.754,-2.859 -2.055,-4.703 -0.291,-1.786 -0.302,-3.658 -0.432,-5.461 -0.24,-3.319 -0.445,-6.641 -0.678,-9.961 -0.489,-6.989 -1.039,-13.973 -1.647,-20.952 -1.204,-13.778 -2.495,-27.543 -4.08,-41.283 -2.817,-24.418 -6.352,-48.772 -10.52,-72.995 -4.072,-23.664 -9.219,-47.088 -14.589,-70.482 l -0.556,-2.42 c -9.403,-40.845 -23.894,-87.883 -63.062,-109.711 z M 98.041022,433.091 c 0.1537,-0.409 0.8151,-0.503 0.9268,0 1.407998,6.342 1.547198,12.875 1.762398,19.368 0.212,6.406 0.2034,12.841 0.1101,19.251 -0.3442,23.556 -0.990498,47.092 -1.549398,70.644 -0.2794,11.782 -0.5416,23.564 -0.7428,35.347 -0.0761,4.419 -0.14,8.838 -0.1932,13.258 l -0.065,5.828 c -0.0323,2.577 -0.1,5.123 -0.414,7.697 -0.2072,1.693 -0.6485,3.308 -1.5828,4.76 -0.6631,1.03 -1.6082,1.553 -2.5293,2.253 l -0.1724,0.134 c -1.1749,0.928 -2.4124,0.935 -3.5761,0 l -0.3379,-0.268 c -1.1115,-0.87 -2.0722,-1.549 -2.7818,-2.925 -0.9872,-1.912 -1.1453,-3.989 -1.3131,-6.097 -0.2546,-3.195 -0.0858,-6.437 -0.0528,-9.642 0.0658,-6.428 0.1548,-12.855 0.2675,-19.283 0.4138,-23.571 1.2316,-47.147 2.7222,-70.676 0.7022,-11.083 1.6543,-22.202 2.9314,-33.24 l 0.2433,-2.069 c 0.3874,-3.248 0.7407,-6.553 1.1388,-9.869 -5.9433,-4.183 -11.1674,-9.258 -15.6224,-15.014 -0.328,-0.424 0.212,-1.018 0.608,-0.608 4.552,4.716 9.7714,8.475 15.5496,11.431 0.9468,-6.942 2.2485,-13.846 4.6729,-20.28 z M 197.33102,222.974 c 0.082,-0.063 0.209,-0.09 0.287,0 1.277,1.491 1.018,3.769 1.059,5.657 l 0.005,0.176 c 0.092,2.761 0.109,5.513 0.1,8.275 l -0.029,8.793 c -0.004,1.209 -0.102,2.468 -0.04,3.684 l 0.033,0.471 c 0.671,0.687 0.983,1.681 0.755,2.679 -0.041,1.28 -0.71,2.349 -1.686,3.02 l 2.092,2.969 2.093,2.967 c 4.315,6.124 8.678,12.193 13.225,18.148 4.636,6.071 9.582,11.914 14.757,17.532 2.529,2.745 5.101,5.452 7.732,8.098 1.069,1.076 2.165,2.124 3.249,3.185 l 1.079,1.066 c 0.637,0.637 1.438,1.268 1.861,2.076 0.249,0.477 0.306,1.651 0.395,1.845 0.798,1.756 -0.564,4.556 -2.828,3.68 l 0.103,-0.069 c 0.412,-0.286 0.148,-0.291 -0.793,-0.012 -0.593,-0.002 -1.149,-0.138 -1.669,-0.409 l -0.155,-0.085 c -0.732,-0.372 -1.386,-1.093 -1.98,-1.669 l -0.148,-0.14 c -1.36,-1.275 -2.656,-2.627 -3.959,-3.96 -2.721,-2.78 -5.38,-5.62 -7.954,-8.535 -5.136,-5.818 -10.005,-11.871 -14.616,-18.112 -4.696,-6.357 -9.062,-13.04 -12.816,-19.997 -1.424,-2.641 -2.73,-5.332 -3.983,-8.054 -2.437,-0.783 -3.003,-3.377 -2.833,-6.298 -0.899,-2.096 -1.709,-4.234 -2.188,-6.419 -0.066,-0.299 0.319,-0.582 0.549,-0.32 0.78,0.886 1.502,1.83 2.195,2.798 0.419,-2.049 0.949,-3.934 1.198,-5.136 l 1.081,-5.305 c -6.089,-0.317 -12.762,2.186 -16.959,6.567 -0.226,1.141 -1.103,1.958 -1.959,3.025 -0.977,1.219 -1.83,2.587 -2.466,4.018 -1.411,3.171 -0.615,7.845 -3.353,10.172 -0.285,0.242 -0.604,0.411 -0.933,0.515 1.299,6.373 0.71,13.396 0.681,19.861 l -0.001,0.569 c 0.007,7.237 -0.235,14.479 -0.514,21.71 l -0.285,7.156 c -0.368,9.543 -0.607,19.092 0.32,28.583 4.232,-3.75 8.608,-7.329 13.135,-10.739 2.976,-2.242 6.012,-4.405 9.103,-6.486 l 2.512,-1.68 c 3.01,-2.019 6.093,-4.097 9.388,-5.543 4.311,-1.891 8.409,-1.241 12.571,0.699 4.144,1.931 8.165,4.175 12.23,6.269 4.134,2.129 8.277,4.24 12.418,6.356 2.742,1.402 6.761,2.668 8.773,5.249 0.128,-0.571 0.278,-1.141 0.453,-1.708 -0.2,-0.865 -0.123,-1.8 0.362,-2.691 6.76,-12.427 13.014,-25.15 19.224,-37.858 3.144,-6.431 6.132,-12.938 9.282,-19.366 l 3.061,-6.259 c 0.512,-1.043 1.025,-2.085 1.541,-3.126 0.772,-1.557 1.577,-3.1 2.358,-4.654 0.33,-0.656 0.744,-1.309 1.065,-1.971 l 0.152,-0.333 c 0.008,-0.017 0.749,-2.351 0.176,-2.128 l -0.049,0.023 c -0.292,0.166 -0.526,-0.202 -0.337,-0.437 0.81,-1.002 1.939,-0.114 2.401,0.814 1.274,2.553 -1.06,6.561 -1.958,9.006 l -0.049,0.137 c -2.787,7.891 -5.941,15.633 -9.174,23.349 -6.198,14.793 -12.856,29.358 -19.499,43.949 l -0.079,0.251 c 1.416,-1.086 2.929,-2.072 4.224,-3.032 3.268,-2.422 6.631,-4.724 9.989,-7.019 6.157,-4.209 12.482,-8.141 18.911,-11.917 l 1.287,-0.753 c 3.211,-1.872 6.392,-3.39 10.204,-2.828 3.542,0.522 6.834,2.425 10.033,3.971 l 0.331,0.159 9.886,4.702 c -1.057,-4.216 -2.201,-8.412 -3.395,-12.593 -2.328,-8.154 -4.89,-16.239 -7.669,-24.252 -2.594,-7.487 -5.4,-14.892 -8.367,-22.238 l -0.893,-2.205 c -1.21,-3.025 -2.413,-6.323 -5.87,-7.254 -3.455,-0.931 -7.419,0.449 -10.577,-1.521 -0.287,-0.179 -0.251,-0.653 0.097,-0.74 l 1.948,-0.492 c 3.659,-0.91 7.948,-1.826 11.408,-0.941 3.765,0.965 6.88,4.127 8.707,7.413 2.031,3.656 3.463,7.748 5.004,11.646 l 0.244,0.614 c 1.769,4.412 3.471,8.85 5.099,13.317 3.255,8.927 6.218,17.962 8.9,27.078 1.293,4.394 2.519,8.808 3.698,13.234 0.339,1.272 0.898,2.816 1.356,4.425 0.526,0.513 1.023,1.085 1.49,1.738 0.774,1.082 0.218,2.352 -0.744,3 -0.037,1.108 -0.284,2.149 -0.872,3.042 -2.295,3.486 -8.363,2.588 -8.117,-2.098 0.037,-0.718 0.317,-1.403 0.74,-1.981 l -0.012,-0.094 -0.048,-0.172 c -1.054,-0.505 -2.112,-1.068 -3.227,-1.619 l -10.375,-5.129 c -3.005,-1.486 -6.335,-3.782 -9.677,-4.348 -3.115,-0.528 -6.402,1.794 -9.078,3.195 l -0.174,0.09 c -6.471,3.319 -12.894,6.747 -19.291,10.204 -3.123,1.688 -6.206,3.446 -9.317,5.153 -2.601,1.428 -5.409,3.478 -8.333,4.284 -1.248,0.972 -2.732,0.842 -3.924,0.107 0.545,3.376 0.511,6.841 0.678,10.293 0.225,4.614 0.26,9.241 0.334,13.862 l 0.03,1.733 c 0.196,10.215 0.302,20.433 0.34,30.65 0.139,36.384 -0.263,72.778 -0.357,109.161 -0.048,18.28 -0.41,36.576 -0.884,54.849 -0.202,7.743 -0.622,15.477 -1.077,23.208 l -0.25,4.217 c -0.529,8.898 -0.842,17.894 -2.488,26.672 -0.215,1.145 -2.151,1.174 -2.341,0 -1.516,-9.406 -1.6,-19.018 -1.891,-28.534 l -0.062,-1.902 c -0.35,-10.217 -0.516,-20.428 -0.48,-30.651 0.129,-36.398 1.075,-72.773 1.848,-109.161 0.389,-18.282 0.651,-36.573 1.255,-54.849 0.302,-9.145 0.644,-18.284 1.05,-27.425 0.181,-4.082 0.356,-8.159 0.627,-12.234 l 0.122,-1.747 c 0.084,-1.139 0.152,-2.265 0.235,-3.38 -3.681,1.345 -7.048,-1.145 -10.359,-2.849 -3.816,-1.964 -7.631,-3.931 -11.448,-5.892 l -3.821,-1.957 -7.647,-3.903 c -3.443,-1.758 -6.095,-3.508 -9.767,-1.446 -13.23,7.426 -25.387,17.307 -36.404,27.675 -2.112,1.988 -6.576,1.454 -7.111,-1.879 -2.286,-14.236 -0.896,-28.678 0.271,-42.957 l 0.43,-5.302 c 0.522,-6.332 1.089,-12.663 1.846,-18.97 0.338,-2.82 0.675,-5.64 1.048,-8.455 l 0.287,-2.111 c 0.466,-3.337 0.771,-6.655 1.764,-9.855 -0.313,-0.102 -0.615,-0.268 -0.885,-0.524 -2.987,-2.836 -1.547,-7.757 -0.183,-11.13 1.346,-3.33 3.398,-6.236 5.969,-8.737 0.56,-0.546 1.351,-0.898 2.145,-0.916 6.232,-4.131 13.069,-6.193 20.185,-3.938 0.2,-0.956 0.404,-1.911 0.619,-2.863 l 0.218,-0.951 c 0.554,-2.363 0.759,-6.265 2.796,-7.846 z m 63.876,373.084 c 1.934,-0.532 4.052,0.029 5.469,1.447 1.416,1.418 1.977,3.536 1.444,5.471 -0.266,0.952 -0.748,1.779 -1.444,2.481 -0.651,0.647 -1.411,1.109 -2.279,1.386 l -0.202,0.06 -0.316,0.132 c -0.969,0.261 -1.939,0.261 -2.908,0 -0.927,-0.26 -1.731,-0.729 -2.414,-1.407 -0.678,-0.683 -1.147,-1.488 -1.407,-2.416 -0.261,-0.97 -0.261,-1.94 0,-2.91 l 0.132,-0.316 c 0.266,-0.953 0.748,-1.78 1.445,-2.481 0.701,-0.697 1.528,-1.18 2.48,-1.447 z m 114.836,-192.819 c 0.318,-0.364 0.833,0.103 0.636,0.491 -3.013,5.909 -6.37,11.775 -9.67,17.534 0.264,1.596 0.526,3.179 0.828,4.722 1.285,6.577 2.86,13.036 3.887,19.676 3.689,23.867 5.605,47.993 7.249,72.075 1.648,24.167 1.859,48.346 2.107,72.561 0.022,2.099 -1.592,4.538 -3.754,4.933 -0.99,0.181 -1.731,0.146 -2.718,0 -2.251,-0.331 -3.658,-2.91 -3.755,-4.933 -0.645,-13.534 -1.513,-27.05 -2.518,-40.562 -1.783,-23.957 -2.872,-47.975 -4.312,-71.956 l -0.507,-8.382 c -0.544,-9.082 -1.042,-18.17 -1.204,-27.265 -0.108,-6.026 0.214,-12.05 0.016,-18.069 -0.183,-5.556 -0.746,-11.598 0.479,-17.058 0.045,-0.204 0.368,-0.256 0.461,-0.06 1.274,2.681 2.08,5.596 2.702,8.571 3.281,-4.152 6.622,-8.313 10.073,-12.278 z m -214.922,-146.783 c 0.461,-0.033 0.443,0.66 0,0.711 -6.439,0.747 -12.659,3.369 -18.739,5.597 l -0.521,0.19 c -6.142,2.23 -12.131,4.823 -17.894,7.913 -11.2677,6.043 -21.6147,13.835 -30.762998,22.755 -36.5246,35.608 -53.1698,86.957 -65.3666,135.211 -6.77678,26.81 -11.59584,54.073 -14.71936,81.545 -1.54444,13.587 -2.63634,27.225 -3.2729399,40.884 -0.3258,7.001 -0.5314,14.008 -0.6172,21.015 -0.0442,3.59 -0.0571,7.18 -0.0528,10.77 0.0021,1.645 0.2956,3.716 -0.1441,5.313 -0.4078,1.479 -1.5579,2.782 -2.4087,4.015 -1.0082,1.463 -2.8203,1.386 -3.8426,0 l -0.377,-0.504 c -1.0903,-1.447 -2.15699996,-2.831 -2.31279996,-4.722 -0.1667,-2.027 -0.0491,-4.117 -0.0566,-6.154 -0.0173,-4.102 0.0334,-8.205 0.1154,-12.307 0.1581,-7.862 0.4677,-15.72 0.92789996,-23.571 0.9344,-15.93 2.4724,-31.829 4.6745,-47.634 3.9144,-28.094 9.7815999,-55.919 17.4668429,-83.222 7.250437,-25.756 15.839857,-51.436 28.076057,-75.294 11.3611,-22.152 26.2655,-42.759 45.9323,-58.24 9.145598,-7.199 19.101498,-13.199 29.835698,-17.717 5.413,-2.279 11.098,-4.139 16.879,-5.2 5.718,-1.048 11.41,-0.902 17.18,-1.354 z m 101.195,294.076 c 1.021,-0.007 2.16,0.217 3.036,0.782 l 1.17,0.906 c 0.317,0.407 0.633,0.816 0.948,1.226 0.732,0.955 0.829,2.499 0.676,3.636 -0.034,0.76 -0.26,1.466 -0.676,2.12 l -0.892,1.155 c -0.856,0.699 -1.571,1.198 -2.608,1.534 -0.542,0.175 -1.064,0.212 -1.585,0.185 l -0.174,-0.011 0.105,0.014 -0.183,-0.02 c -0.169,-0.015 -0.339,-0.033 -0.51,-0.056 -0.116,-0.015 -0.232,-0.024 -0.348,-0.04 -0.112,-0.009 -0.22,-0.013 -0.332,-0.003 -1.319,0.124 -2.644,-0.624 -3.58,-1.483 -0.844,-0.775 -1.6,-2.417 -1.483,-3.582 l 0.05,-0.486 c 0.089,-0.821 0.162,-1.144 0.51,-1.968 0.337,-0.802 0.809,-1.51 1.452,-2.108 1.23,-1.145 2.736,-1.789 4.424,-1.801 z m -4.082,-60.064 c 1.75,-1.908 4.756,-2.049 6.926,-0.895 0.529,0.282 1.014,0.734 1.48,1.11 1.175,0.95 1.636,2.664 1.701,4.108 0.064,1.428 -0.689,3.123 -1.701,4.108 l -0.245,0.238 c -0.605,0.589 -1.471,1.1 -2.317,1.256 -1.365,0.251 -2.51,0.243 -3.781,-0.293 -1.091,-0.461 -2.032,-1.202 -2.672,-2.207 l -0.104,-0.17 c -0.044,-0.07 -0.085,-0.142 -0.124,-0.215 l -0.057,-0.111 c -1.216,-2.339 -0.889,-4.987 0.894,-6.929 z m 0.907,-60.382 c 0.789,-0.248 1.578,-0.283 2.367,-0.106 0.536,0.002 1.035,0.137 1.498,0.405 0.503,0.141 0.94,0.396 1.31,0.765 0.445,0.263 0.801,0.618 1.065,1.064 0.525,0.574 0.879,1.247 1.062,2.02 l 0.212,1.579 -0.212,1.579 -0.598,1.419 c -0.165,0.215 -0.33,0.43 -0.498,0.644 -0.264,0.447 -0.62,0.804 -1.067,1.068 -0.291,0.29 -0.624,0.506 -0.997,0.656 -1.322,0.948 -3.083,1.257 -4.649,0.825 -0.93,-0.26 -1.737,-0.731 -2.422,-1.412 -0.68,-0.685 -1.151,-1.493 -1.411,-2.423 l -0.108,-0.743 c -0.138,-0.996 -0.16,-1.548 0.122,-2.815 0.124,-0.557 0.483,-1.342 0.67,-1.673 0.803,-1.412 2.114,-2.379 3.656,-2.852 z m 68.53,-43.44 c 2.266,-0.016 4.532,-0.011 6.798,0.014 l 1.699,0.022 c 2.846,0.045 5.283,-0.248 7.52,1.727 1.624,1.434 0.909,3.839 -0.632,4.919 -2.336,1.635 -5.265,0.813 -7.949,0.632 -2.832,-0.19 -5.665,-0.347 -8.499,-0.475 -5.488,-0.245 -10.978,-0.402 -16.472,-0.426 -5.481,-0.023 -10.971,0.029 -16.452,0.117 -5.577,0.091 -11.384,0.611 -16.929,0.033 -0.762,-0.079 -0.934,-1.082 -0.182,-1.342 5.226,-1.809 11.105,-2.395 16.581,-3.087 5.649,-0.714 11.298,-1.219 16.982,-1.547 5.839,-0.335 11.686,-0.546 17.535,-0.587 z m -68.541,-17.765 0.187,0.004 c 0.998,0.002 1.931,0.237 2.802,0.704 l 0.185,0.104 1.198,0.925 c 0.733,0.739 1.241,1.61 1.521,2.613 l 0.212,1.574 c 0.031,0.815 -0.139,1.575 -0.51,2.281 -0.238,0.734 -0.646,1.368 -1.223,1.905 -0.536,0.577 -1.171,0.985 -1.904,1.224 -0.652,0.342 -1.349,0.513 -2.094,0.514 l -0.187,-0.004 c -1.067,-0.004 -2.063,-0.273 -2.986,-0.808 l -1.198,-0.926 c -0.733,-0.739 -1.241,-1.61 -1.521,-2.613 l -0.212,-1.573 c -0.03,-0.815 0.139,-1.576 0.51,-2.281 0.239,-0.734 0.647,-1.37 1.223,-1.906 0.536,-0.577 1.171,-0.985 1.905,-1.224 0.651,-0.342 1.348,-0.513 2.092,-0.513 z m 17.543,-139.077 c 1.275,-1.848 3.585,-0.205 3.255,1.281 0.087,4.171 0.3,8.22 1.249,12.307 0.434,1.87 1.004,3.743 1.881,5.457 l 0.369,0.722 c 1.136,2.245 2.018,4.363 0.488,6.827 -0.721,1.161 -2.025,2.034 -3.438,1.973 -6.265,-0.271 -7.126,-8.997 -7.507,-13.868 -0.393,-5.017 0.828,-10.531 3.703,-14.699 z"
     fill="#12296c"
     id="path4" />
  <path
     fill-rule="evenodd"
     clip-rule="evenodd"
     d="m 240.49502,4.1596315 c 24.153,0 53.132,11.7149695 55.596,11.9492695 l 0.066,0.0036 c 1.296,0 6.362,3.8609 15.196,11.5828 l -9.569,18.672 0.775,0.7398 c 3.705,3.5544 6.868,6.7942 9.365,9.3481 20.388,20.8527 24.052,102.726799 19.247,131.278799 -4.804,28.552 -13.703,56.491 -55.134,56.491 -41.43,0 -87.522,-24.924 -94.622,-32.686 -4.734,-5.174 -10.051,-7.653 -15.951,-7.437 -0.242,-0.306 -0.483,-0.611 -0.722,-0.915 l -0.868,-0.123 c -8.166,-1.184 -14.017,-2.776 -17.553,-4.778 -6.907,-3.909 -14.498,-24.463 -14.498,-28.99 0,-4.483 -11.3359,-37.09 -11.5626,-40.541 l -0.004,-0.095 c 0,-2.885 -14.8089,-16.145 -14.8089,-20.356 0,-4.212 -2.985,-3.956 0,-18.795599 l 0.8672,-4.3595 c 3.1765,-15.7998 9.3938,-41.9621 33.0988,-53.3303 26.05,-12.4927 76.684,-27.6589695 101.081,-27.6589695 z"
     fill="#ffffff"
     id="path6" />
  <path
     fill-rule="evenodd"
     clip-rule="evenodd"
     d="m 135.39302,31.231701 c 12.992,-13.797 86.749,-35.1375095 124.065,-30.61381754 l 1.119,0.145034 c 2.978,0.37782404 5.913,0.94995404 8.809,1.72719404 9.362,2.1876 19.032,5.50003 26.768,11.0329895 6.458,4.5263 26.83,11.9182 20.825,23.7591 2.227,4.2203 3.058,9.4343 1.553,13.5909 -0.189,1.4357 -0.632,2.7581 -1.198,4.1291 4.757,7.0226 8.523,14.9645 11.571,22.5182 5.328,19.0105 8.643,38.794599 9.128,58.190599 1.615,36.849 -2.423,80.866 -34.501,104.695 -19.378,15.099 -49.733,15.607 -71.509,-3.115 -1.236,-1.463 -7.048,-5.412 -5.109,-6.104 0.578,0.61 1.171,1.203 1.775,1.786 -0.027,-0.065 -0.033,-0.129 -0.021,-0.2 l -0.569,-0.514 c -1.07,-0.991 -2.456,-2.428 -0.877,-2.147 0.07,0.081 0.146,0.152 0.221,0.233 0.334,0.2 0.587,0.374 0.783,0.528 l 0.101,0.081 -0.031,-0.033 c -0.909,-0.97 -1.455,-1.96 -0.095,-1.328 l 0.18,0.088 c 0.605,0.637 1.219,1.247 1.845,1.84 -0.01,-0.07 0,-0.14 0.039,-0.216 l -0.584,-0.564 c -0.57,-0.558 -0.483,-0.56 -0.204,-1.012 -1.211,-1.697 1.049,-0.689 1.208,-0.027 1.414,-0.334 2.655,2.321 3.566,2.645 39.92,30.706 97.851,3.46 96.913,-82.103 l -0.014,-1.674 c -0.274,-27.36 -2.576,-55.480199 -13.886,-80.246899 -1.1,-2.3857 -2.331,-4.7066 -3.684,-6.9519 -0.934,-1.684 -1.932,-3.3249 -3.005,-4.9225 -3.005,-0.2429 -5.973,-0.7934 -8.896,-1.6462 -1.004,-0.2537 -1.996,-0.5344 -2.989,-0.8636 -14.5,0.7912 -28.678,1.6521 -43.219,2.4682 l -4.543,0.2831 c -12.318,0.7923 -25.057,2.0614 -34.998,9.6844 -9.753,6.9401 -9.797,20.6254 -18.147,28.245 -11.906,8.085399 -11.993,15.375399 -14.285,27.289399 0.17,8.982 6.394,22.031 -5.028,25.811 1.927,2.749 -0.759,1.428 -0.971,0.464 -0.021,0.006 -0.043,0.011 -0.059,0.011 1.717,3.194 -0.807,1.183 -1.03,0.157 -0.135,-0.038 -0.27,-0.135 -0.405,-0.27 1.73,2.798 -1.067,0.838 -0.901,0.329 -3.343,-5.141 -10.223,-5.939 -15.073,-4.577 -0.06,0.183 -0.275,0.2 -0.41,0.102 -20.622,4.472 -15.301,47.185 5.832,43.056 0.905,-0.185 0.883,0.25 1.063,0.292 -0.489,-1.283 0.888,-0.761 0.873,-0.492 l 0.084,-0.004 c 0.066,-0.006 0.039,-0.013 0.089,0.004 -0.472,-2.622 2.184,1.178 1.974,1.334 0.082,-0.049 0.173,-0.076 0.254,-0.087 l -0.091,-0.249 c -0.441,-1.175 -0.403,-0.686 -0.4,-1.359 -0.331,-0.832 -0.356,-0.468 -0.278,-1.01 1.164,-0.903 1.508,1.835 1.896,2.035 -0.665,-0.928 -0.136,-1.686 0.492,-1.182 4.759,10.016 10.908,19.428 18.854,26.842 0.869,0.685 1.748,1.36 2.659,1.997 3.38,2.945 8.564,4.839 11.728,7.448 0,0.044 -0.021,0.098 -0.053,0.152 l 0.072,0.065 0.073,0.069 1.101,0.529 c 0.324,0.276 0.615,0.583 0.873,0.923 0.276,0.319 0.518,0.67 0.724,1.042 0.102,0.454 -0.124,0.642 -0.556,0.448 -0.189,-0.065 -0.378,-0.14 -0.566,-0.21 0.01,0.016 0.015,0.027 0.027,0.037 0.061,0.094 0.481,1.066 -0.002,0.908 l -0.058,-0.022 c -0.265,-0.098 -0.528,-0.206 -0.787,-0.308 0.307,0.383 0.587,0.799 0.835,1.15 0.265,0.275 0.426,0.599 0.492,0.966 -0.012,0.205 -0.124,0.291 -0.329,0.264 -0.313,-0.102 -0.621,-0.21 -0.929,-0.324 l 0.088,0.168 c 0.217,0.428 0.527,1.146 -0.023,0.906 -0.469,-0.145 -0.922,-0.313 -1.375,-0.496 -0.038,0.075 -0.113,0.102 -0.265,0.032 -1.44,-0.512 -2.832,-1.139 -4.164,-1.878 -1.171,-0.853 -2.353,-1.689 -3.528,-2.537 -1.107,-0.664 -2.175,-1.403 -3.194,-2.234 -6.822,-4.409 -12.795,-10.009 -17.533,-16.247 -7.924,6.866 -23.767,0.307 -33.568,-5.068 -8.669,-4.804 -12.076,-13.686 -12.957,-23.262 -1.831,-12.892 -12.3618,-17.305 -11.6292,-45.594 -0.0162,0.006 -0.0329,0.006 -0.0545,0.006 -0.383,-0.114 -0.7547,-0.265 -1.1053,-0.459 -0.3615,-0.173 -0.7013,-0.378 -1.0202,-0.626 l -0.3938,-0.545 c -0.2044,-0.114 -0.3878,-0.232 -0.5281,-0.351 l -0.0727,0.094 c -0.2303,0.278 -0.0755,-0.141 -0.0622,-0.224 l -0.6841,-0.931 c -1.6221,-2.215 -3.4017,-4.702 -4.8513,-6.69 l -0.0457,0.081 c -0.0328,0.061 -0.0501,0.105 -0.0347,0.124 -3.4499,-4.959 -6.6943,-10.949 -7.5957,-16.748 -1.064398,-4.467 -0.6485,-9.070099 0.28,-13.207799 3.9807,-14.4895 17.0207,-47.2781 34.1425,-61.3315 z m 93.624,200.383299 -0.217,-0.193 0.191,0.238 c 0.099,0.123 0.201,0.234 0.367,0.347 -0.011,-0.038 -0.011,-0.076 -0.006,-0.119 -0.11,-0.084 -0.223,-0.176 -0.335,-0.273 z m 30.276,-223.7166185 c -25.306,-2.1768 -50.195,3.4009195 -74.343,10.1526195 l -1.665,0.4791 c -13.731,3.9199 -28.25,7.4472 -39.853,15.8375 -16.212,12.4234 -24.583,32.1868 -31.8885,50.434 -6.3792,13.5574 -3.1181,28.844399 6.4952,38.311399 1.0001,-9.407 2.7054,-18.539 5.3703,-27.597899 0.556,-1.4152 0.135,-1.8789 1.334,-2.0635 1.811,24.411399 -7.1062,42.448399 10.54,71.379399 7.656,13.651 -1.207,23.64 20.415,30.823 l 0.585,0.224 c 4.504,1.701 9.424,3.043 13.836,2.093 l -0.395,-0.644 c -0.404,-0.662 -0.526,-0.984 0.06,-1.267 -0.015,-0.033 -0.037,-0.065 -0.059,-0.103 -0.474,-0.896 -0.933,-1.802 -1.37,-2.72 -0.178,0.059 -0.356,0.102 -0.54,0.151 0.12,0.221 0.135,0.443 -0.199,0.518 -1.189,0.408 -2.409,0.572 -3.659,0.495 l -0.268,-0.02 c -1.412,-0.086 -2.301,-0.344 -3.097,-0.583 -0.264,-0.043 -0.528,-0.086 -0.788,-0.14 -2.56,-0.568 -5.269,-2.012 -7.023,-3.444 -19.992,-11.36 -17.926,-50.033 6.716,-53.688 0.506,-24.349 12.081,-65.428599 31.291,-88.630699 17.365,-21.3422 64.77,-30.5924 97.751,-27.3307 0.48,0.1593 0.961,0.3201 1.442,0.4826 5.088,0.4523 9.937,2.7203 15.029,3.7739 -3.656,-2.7414 -7.803,-4.5674 -12.075,-6.1191 -8.512,-5.2091 -18.27,-8.0277 -27.697,-10.0155895 -1.953,-0.48037 -3.933,-0.74485 -5.945,-0.78803 z M 158.36902,156.086 c 1.325,-0.72 1.174,-0.025 1.479,-0.227 9.53,-0.777 19.806,7.571 25.133,14.53 -0.421,0.438 -1.559,-0.858 -1.758,-1.063 -0.027,0.027 -0.06,0.049 -0.092,0.059 l 0.148,0.21 c 2.159,3.1 -2.121,-0.548 -2.522,-1.3 -0.07,0.038 -0.14,0.06 -0.221,0.043 0.339,0.333 1.376,1.202 1.554,1.819 l 0.274,0.229 c 2.591,2.22 2.376,3.889 -0.565,0.737 0.07,0.146 0.097,0.281 0.048,0.389 l 0.101,0.068 c 1.447,1.011 2.636,3.83 -0.387,0.936 0.315,2.114 -2.996,-1.972 -3.102,-1.943 -5.728,-4.499 -14.161,-8.874 -21.347,-9.462 l -0.247,-0.028 c -1.318,-0.17 -1.942,-0.561 -1.479,-1.424 -1.624,-0.386 -1.243,-1.186 -0.475,-1.16 -1.145,-0.754 -0.114,-1.474 0.551,-1.193 -0.457,-1.266 1.375,-0.423 1.543,-0.599 0.951,-1.468 1.207,-0.244 1.364,-0.621 z m -19.976,-78.452299 c 4.577,-1.6775 18.098,3.3443 17.016,9.9951 -0.644,1.5269 -2.766,2.4019 -4.258,1.5399 l -1.946,-1.3082 c -3.388,-2.2702 -6.444,-4.2608 -10.082,-6.2407 -1.979,-0.9829 -2.832,-3.0696 -0.73,-3.9861 z m 26.043,-9.8834 -1.768,-1.151 c -9.54,-6.2468 -23.026,-15.7123 0.891,-5.9192 2.726,1.1697 6.348,1.8616 7.835,4.4589 2.337,4.787 -3.812,5.1087 -6.958,2.6113 z m 1.072,-28.0286 c -0.766,-2.9065 8.76,0.5042 11.532,1.4034 l 0.423,0.1596 c 2.697,1.0056 5.789,1.9384 7.402,4.2674 1.891,3.218 -1.935,3.8846 -4.305,2.431 -4.859,-3.1769 -10.186,-5.574 -15.052,-8.2614 z m 24.222,-13.5395 c -5.362,-5.8581 8.987,-0.2462 11.137,1.3115 l 0.061,0.046 c 1.604,1.1297 1.279,3.5629 -0.228,4.2775 -4.287,0.0815 -7.442,-3.4938 -10.97,-5.635 z m 24.398,-6.4182 c -8.524,-6.1289 2.704,-3.2137 6.604,-0.8118 2.658,2.3452 -0.08,6.3042 -6.604,0.8118 z"
     fill="#12296c"
     id="path8" />
  <path
     fill-rule="evenodd"
     clip-rule="evenodd"
     d="m 244.56602,173.516 c 9.247,-1.122 18.211,1.71 27.251,3.138 4.774,0.753 9.553,1.316 14.383,1.525 0.972,0.043 1.944,0.067 2.916,0.087 0.09,-0.856 0.569,-1.642 1.607,-2.113 2.128,-0.965 3.83,-1.4 6.166,-1.307 2.138,0.084 4.284,0.304 6.389,0.69 3.823,0.701 7.664,2.293 10.46,5.057 6.472,6.398 5.487,16.674 0.486,23.643 -10.332,14.399 -29.189,15.067 -45.339,14.879 l -1.491,-0.019 c -14.705,-0.21 -35.745,1.983 -42.425,-14.756 -2.457,-6.156 -2.116,-13.291 0.892,-19.195 3.588,-7.042 11.14,-10.71 18.705,-11.629 z m 45.934,23.975 -0.131,0.006 c -6.78,0.261 -13.559,0.445 -20.343,0.565 0.203,1.743 0.41,3.486 0.647,5.226 0.186,1.368 0.385,2.735 0.592,4.101 0.088,0.578 0.41,1.476 0.319,2.048 l -0.033,0.227 c 0.348,0.157 0.664,0.411 0.899,0.78 0.082,0.127 0.141,0.256 0.201,0.384 5.266,0.041 10.934,-0.061 16.303,-1.019 l 0.011,-0.117 c 0.098,-0.686 0.383,-1.148 0.762,-1.465 0.377,-2.188 0.343,-4.52 0.489,-6.691 0.091,-1.349 0.189,-2.697 0.284,-4.045 z m -25.655,0.663 c -4.887,0.083 -9.776,0.148 -14.662,0.088 l -2.218,-0.034 c 0.468,2.514 0.978,5.019 1.402,7.55 0.442,2.638 -1.879,4.315 -3.887,4.247 0.225,0.037 0.45,0.076 0.676,0.107 6.275,0.888 12.79,0.653 19.159,0.646 -0.343,-2.001 -0.204,-4.259 -0.255,-5.928 l -0.01,-0.259 c -0.098,-2.14 -0.166,-4.278 -0.205,-6.417 z m -33.194,-0.461 c 0.169,1.307 0.499,2.587 0.993,3.778 2.086,5.033 6.868,7.381 11.928,8.37 -0.878,-0.303 -1.575,-1.032 -1.751,-2.28 -0.439,-3.104 -0.597,-6.259 -0.608,-9.41 -3.527,-0.033 -7.077,-0.109 -10.562,-0.458 z m 77.24,-1.075 c -2.511,0.593 -5.429,0.321 -7.892,0.433 -2.308,0.105 -4.616,0.197 -6.924,0.29 0.109,1.576 0.215,3.152 0.33,4.727 0.148,2.037 0.162,4.188 0.552,6.216 4.645,-1.586 8.806,-4.129 11.928,-8.196 0.778,-1.014 1.475,-2.203 2.006,-3.47 z m -65.386,-14.844 c -4.18,0.99 -8.135,3.081 -10.261,6.908 -1.262,2.271 -1.817,4.962 -1.71,7.614 3.532,-0.412 7.125,-0.568 10.701,-0.697 0.012,-0.644 0.027,-1.288 0.047,-1.93 l 0.055,-1.646 c 0.097,-3.139 0.146,-7.082 1.168,-10.249 z m 21.632,0.383 -1.84,-0.207 c -5.11,-0.583 -10.218,-1.194 -15.328,-0.844 -0.74,0.052 -1.491,0.132 -2.243,0.242 0.903,3.262 0.827,7.092 1.204,10.32 0.146,1.249 0.33,2.487 0.534,3.72 l 0.887,-0.042 c 5.484,-0.297 10.973,-0.48 16.461,-0.698 -0.001,-1.031 0.005,-2.062 0.022,-3.094 l 0.02,-1.032 c 0.062,-2.636 -0.108,-5.605 0.283,-8.365 z m 25.662,-0.419 c -5.352,0.865 -10.884,1.049 -16.141,1.055 -2.1,0.003 -4.199,-0.126 -6.297,-0.312 0.137,1.117 0.208,2.248 0.311,3.35 0.207,2.226 0.443,4.45 0.701,6.671 l 0.229,1.944 c 6.746,-0.306 13.491,-0.637 20.235,-0.979 l 0.951,-0.051 0.267,-3.736 c 0.182,-2.491 0.382,-4.981 0.664,-7.461 l -0.212,-0.076 c -0.249,-0.102 -0.484,-0.243 -0.708,-0.405 z m 2.325,0.928 c 0.295,3.522 0.458,7.058 0.675,10.586 l 4.446,-0.237 c 0.74,-0.041 1.481,-0.082 2.222,-0.125 2.881,-0.166 6.583,-1.039 9.431,-0.225 0.218,-2.59 -0.522,-5.114 -2.859,-6.854 -4.103,-3.057 -9.326,-1.969 -13.915,-3.145 z m -15.19,-31.486 c 6.62,-3.793 23.231,-7.67 24.283,4.25 0.484,5.486 -3.592,10.031 -8.352,12.059 l -0.179,0.075 c -4.464,1.836 -12.376,3.91 -16.239,-0.072 -3.215,-3.314 1.049,-9.256 5.044,-6.541 2.054,1.394 6.375,0.367 8.666,-0.297 l 0.144,-0.042 c 2.472,-0.727 5.768,-3.054 4.746,-6.099 -0.905,-2.695 -4.754,-3.187 -7.165,-3.275 -3.599,-0.129 -7.101,0.708 -10.667,0.98 -0.565,0.043 -0.739,-0.776 -0.281,-1.038 z m 27.424,-19.168 c 8.985,-0.421 14.574,9.395 12.508,17.438 -0.357,1.388 -1.908,2.75 -3.406,2.594 l -0.377,-0.035 c -0.192,-0.018 -0.385,-0.042 -0.562,-0.091 -1.422,-0.394 -2.696,-1.874 -2.593,-3.408 l 0.028,-0.447 c 0.209,-3.8 -0.202,-8.177 -4.715,-9.097 -3.828,-0.781 -5.965,2.905 -6.01,6.298 -0.009,0.603 -0.685,1.023 -1.217,0.699 -2.767,-1.684 -3.246,-5.036 -2.19,-7.922 1.34,-3.657 4.692,-5.849 8.534,-6.029 z m -66.68,2.106 c 6.539,-2.183 13.593,1.304 16.76,7.088 1.11,0.322 2.219,1.178 2.065,2.49 -0.223,1.887 -0.558,3.076 -1.866,4.507 -2.045,2.239 -5.876,1.094 -6.726,-1.661 l -0.036,-0.125 c -0.966,-3.562 -4.884,-5.912 -8.454,-4.665 -4.17,1.456 -4.049,5.863 -6.974,8.43 -0.344,0.302 -0.756,0.35 -1.168,0.151 -3.107,-1.503 -2.549,-6.023 -1.441,-8.611 1.453,-3.396 4.276,-6.415 7.84,-7.604 z m -8.905,-19.867 c 5.298,-5.409 19.115,-10.644 22.74,-0.655 0.69,1.903 -0.78,4.468 -2.76,4.863 -3.242,0.645 -6.118,-0.763 -9.339,-0.51 -2.607,0.205 -5.326,1.077 -7.411,2.693 -5.773,4.476 -7.043,12.046 -11.066,17.742 -0.196,0.277 -0.576,0.161 -0.612,-0.166 -0.916,-8.293 2.644,-18.043 8.448,-23.967 z m 69.103,-5.325 c 3.516,-1.243 7.498,-1.136 11.032,-0.034 3.561,1.111 6.83,3.22 9.348,5.976 1.142,1.251 2.2,2.632 3.048,4.101 0.45,0.779 0.924,2.388 1.436,3.346 2.77,1.6 3.954,5.246 1.474,7.84 l -0.112,0.114 -0.332,0.329 c -1.333,1.32 -3.343,1.893 -5.162,1.365 -4.072,-1.179 -4.567,-4.387 -5.977,-7.793 -0.931,-2.25 -2.526,-4.24 -4.46,-5.703 -4.571,-3.454 -12.066,-4.555 -17.569,-2.927 -0.293,0.087 -0.637,-0.286 -0.428,-0.557 1.043,-1.352 1.644,-2.461 3.04,-3.551 1.417,-1.107 2.964,-1.906 4.662,-2.506 z"
     fill="#12296c"
     id="path10" />
  <path
     fill-rule="evenodd"
     clip-rule="evenodd"
     d="m 238.29602,206.288 c 4.368,-10.238 13.9,-17.762 24.876,-20.512 8.059,-2.015 16.518,-1.951 24.734,-1.151 4.304,0.416 8.921,0.757 12.978,2.356 3.464,1.366 6.287,3.949 8.41,6.981 2.527,3.593 4.245,7.704 5.452,11.919 0.172,0.599 0.333,1.203 0.483,1.81 -0.525,3.179 -1.639,5.886 -4.583,7.885 -2.872,1.952 -6.3,2.751 -9.717,3.035 -0.335,-0.162 -0.658,-0.327 -0.955,-0.497 -5.325,-3.049 -9.072,-10.256 -15.793,-9.281 -5.997,0.871 -9.945,8.421 -13.512,12.849 -11.448,1.334 -22.888,-2.108 -32.203,-8.657 -0.473,-2.242 -0.5,-4.503 -0.17,-6.737 z m 84.714,-7.766 c -0.916,-2.572 -2.069,-5.062 -3.437,-7.408 -4.52,-7.759 -11.459,-13.94 -19.696,-17.474 -19.487,-8.348 -44.7,-2.464 -60.437,11.228 -5.376,4.68 -10.811,11.558 -12.455,18.956 -0.491,0.097 -0.954,0.353 -1.336,0.713 -11.37,-7.162 -23.078,-14.053 -32.24,-23.981 -6.654,-7.213 -11.282,-15.75 -14.116,-25.131 -0.231,-0.772 -1.476,-0.659 -1.438,0.196 0.011,0.199 0.022,0.399 0.032,0.599 -0.118,-0.368 -0.678,-0.179 -0.722,0.178 -1.524,11.395 -3.431,23.477 -1.675,34.932 1.05,6.835 4.154,11.839 8.302,17.242 4.445,5.792 9.477,11.179 14.622,16.345 3.265,3.279 6.675,7.062 10.672,9.466 4.65,2.794 9.924,4.918 14.886,7.073 5.048,2.199 10.172,4.231 15.392,5.992 10.436,3.534 21.222,5.976 32.196,7.046 8.787,0.854 18.829,1.784 27.25,-1.524 6.454,-2.534 11.664,-7.115 15.796,-12.627 4.499,-6.003 8.055,-12.841 10.021,-20.052 2.043,-7.49 -1.186,-20.562 -1.617,-21.769 z"
     fill="#12296c"
     id="path12" />
  <path
     fill-rule="evenodd"
     clip-rule="evenodd"
     d="m 343.68902,136.709 c -5.143,34.808 -41.047,38.657 -47.426,4.101 1.024,-0.448 1.76,-1.331 1.606,-3.045 -0.036,-7.531 2.301,-15.49 9.091,-19.678 7.016,-4.321 15.227,-4.75 23.347,-4.641 15.494,-0.369 15.168,12.589 13.382,23.263 z m -53.047,-15.138 c -4.862,-0.206 -11.015,-0.034 -15.371,2.93 -1.197,-3.226 -4.309,-6.671 -7.453,-8.514 11.686,0.343 23.715,-0.808 35.488,-1.701 -2.818,1.922 -5.44,4.809 -7.144,8.148 -1.581,-0.844 -3.846,-0.765 -5.52,-0.863 z m -21.434,18.828 c -13.484,46.438 -47.142,26.197 -50.811,20.246 -6.619,-9.848 -7.864,-33.788 -2.099,-40.189 8.253,-5.788 19.936,-4.299 29.686,-4.441 17.91,0.242 30.631,5.603 23.224,24.384 z m 90.402,-21.358 c -3.663,-0.48 -7.578,-0.576 -10.984,1.038 -1.049,-4.46 -4.341,-8.189 -8.059,-9.83 -0.45,-0.564 -0.382,-0.868 -1.919,-0.783 -9.438,-2.838 -19.999,-1.336 -29.069,1.574 -14.324,1.207 -29.352,2.159 -43.796,3.821 -13.531,-6.079 -54.365,-6.97 -56.902,8.015 -3.192,-0.478 -8.629,-2.992 -11.311,0.418 -19.675,-3.337 -40.004,1.301 -59.765,3.366 -4.974,0.917 -7.535,10.793 -1.889,10.658 3.174,-0.862 -0.098,-6.15 4.176,-6.547 19.065,-2.084 37.714,-5.04 56.974,-5.386 -0.67,3.328 12.739,3.544 12.937,1.601 0.029,0.015 0.059,0.025 0.088,0.038 -3.313,12.354 -0.322,30.135 5.666,37.796 8.39,10.032 29.453,12.91 38.793,6.455 12.048,-5.957 24.581,-35.86 21.061,-45.795 6.389,-2.026 12.706,-1.417 19.337,-0.385 -1.518,4.29 -4.139,14.852 -0.369,15.768 -0.692,20.969 18.382,34.053 35.965,25.451 15.219,-7.148 20.542,-29.773 18.68,-43.506 1.894,3.663 17.802,-0.325 10.386,-3.767 z"
     fill="#12296c"
     id="path14" />
</svg>
